<svg id="visual" viewBox="0 0 3440 600" width="3440" height="600" xmlns="http://www.w3.org/2000/svg" xmlns:xlink="http://www.w3.org/1999/xlink" version="1.1"><path d="M0 433L52.2 451C104.3 469 208.7 505 312.8 497.5C417 490 521 439 625.2 440.5C729.3 442 833.7 496 938 511.2C1042.3 526.3 1146.7 502.7 1251 495.5C1355.3 488.3 1459.7 497.7 1563.8 483.7C1668 469.7 1772 432.3 1876.2 437C1980.3 441.7 2084.7 488.3 2189 496.7C2293.3 505 2397.7 475 2502 447C2606.3 419 2710.7 393 2814.8 399.7C2919 406.3 3023 445.7 3127.2 463.8C3231.3 482 3335.7 479 3387.8 477.5L3440 476L3440 601L3387.8 601C3335.7 601 3231.3 601 3127.2 601C3023 601 2919 601 2814.8 601C2710.7 601 2606.3 601 2502 601C2397.7 601 2293.3 601 2189 601C2084.7 601 1980.3 601 1876.2 601C1772 601 1668 601 1563.8 601C1459.7 601 1355.3 601 1251 601C1146.7 601 1042.3 601 938 601C833.7 601 729.3 601 625.2 601C521 601 417 601 312.8 601C208.7 601 104.3 601 52.2 601L0 601Z" fill="#243357" stroke-linecap="round" stroke-linejoin="miter"></path></svg>